# xmcd
#
# Track frame offsets:
# 150
# 19957
# 38905
# 53690
# 71712
# 98250
# 109237
# 126555
# 141280
# 155827
# 180655
# 199942
# 214230
#
# Disc length: 3056 seconds
#
#
# Revision: 0
# Processed by: cddbd v1.5.1PL0 Copyright (c) Steve Scherf et al.
# Submitted via: FreeRIP 2.92 
#
DISCID=c40bee0d
DTITLE=The Circus Sideshow - The Circus Sideshow
DYEAR=2000
DGENRE=Country
TTITLE0=Something new
TTITLE1=Pink Cadillac
TTITLE2=The day the circus came to town
TTITLE3=Catchy
TTITLE4=Ragin' horses
TTITLE5=Sally Jo
TTITLE6=All gone
TTITLE7=Silvertounge
TTITLE8=Heartland boys
TTITLE9=Fall
TTITLE10=Last of the private eyes
TTITLE11=Helim
TTITLE12=Burning love
EXTD=
EXTT0=
EXTT1=
EXTT2=
EXTT3=
EXTT4=
EXTT5=
EXTT6=
EXTT7=
EXTT8=
EXTT9=
EXTT10=
EXTT11=
EXTT12=
PLAYORDER=
